{"asset":{"version":"2.0","generator":"Transportination · original schematic aircraft"},"scene":0,"scenes":[{"nodes":[0]}],"nodes":[{"mesh":0}],"meshes":[{"primitives":[{"attributes":{"POSITION":0,"NORMAL":1},"material":0}]}],"materials":[{"doubleSided":true,"emissiveFactor":[0.18,0.2,0.22],"pbrMetallicRoughness":{"baseColorFactor":[0.89,0.91,0.93,1],"metallicFactor":0.15,"roughnessFactor":0.5}}],"buffers":[{"byteLength":38088,"uri":"data:application/octet-stream;base64,"}],"bufferViews":[{"buffer":0,"byteOffset":0,"byteLength":19044,"target":34962},{"buffer":0,"byteOffset":19044,"byteLength":19044,"target":34962}],"accessors":[{"bufferView":0,"componentType":5126,"count":1587,"type":"VEC3","min":[-19,-3.68,-17.5],"max":[19,7.2,17.5]},{"bufferView":1,"componentType":5126,"count":1587,"type":"VEC3"}]}